# xmcd CD database file
#
# Track frame offsets:
#	150
#	21562
#	43067
#	65172
#	90575
#	113047
#	131762
#	150952
#	173052
#	195715
#	215660
#	237805
#	258102
#	280230
#	298460
#	318872
#
# Disc length: 4512 seconds
#
# Revision: 2
# Processed by: cddbd v1.4b41PL1 Copyright (c) Steve Scherf et al.
# Submitted via: CD2WAV32(EN) R3.17
#
DISCID=ed119e10
DTITLE=Tevin Campbell - The Best of Tevin Campbell
DYEAR=1900
DGENRE=
TTITLE0=Can We Talk
TTITLE1=I'm Ready
TTITLE2=Shhh
TTITLE3=Always In My Heart
TTITLE4=Back To The World
TTITLE5=Could You Learn To Love
TTITLE6=Goodbye
TTITLE7=Round and Round (Soul Mix Edit)
TTITLE8=Tell Me What You Want Me To Do
TTITLE9=One Song
TTITLE10=Another Way
TTITLE11=Don't Say Goodbye Girl
TTITLE12=What Do I Say
TTITLE13=Brown Eyed Girl
TTITLE14=Tell Me Where
TTITLE15=Another Way
EXTD=
EXTT0=
EXTT1=
EXTT2=
EXTT3=
EXTT4=
EXTT5=
EXTT6=
EXTT7=
EXTT8=
EXTT9=
EXTT10=
EXTT11=
EXTT12=
EXTT13=
EXTT14=
EXTT15=Darkchild Remix Featuring Rap By Saafir
PLAYORDER=
